<svg xmlns="http://www.w3.org/2000/svg" viewBox="0 0 271.25 218.85">
	<path fill="gray" class="f847596a-ae5b-40fc-bfbc-884276c1ef12" d="M233.14,39.45c0,4.53-2.16,5.63-2.77,5.28s.9-4.46.9-6.51-1.5-3.38-2.41-2.77-2.38,6.81-4.91,7.36-6.81-.33-8.09-3.35,2.58-7.22,5.36-8.69,5.35-.48,5.33-1.34-3.74-1.26-6.55-3.3-2.63-4.33-2.18-5.57,2.23,0,2.55-.81-1.73-1.77-3.77-6.82a10.07,10.07,0,0,1-.5-5.9,12,12,0,0,1,1-2.78l.41-.83L4.14,216.78,213.2,10.1a.67.67,0,0,1,1.13.57c-.75,5.74,3.72,8.29,2.21,8.92-2,.85-3.65-5.36-3.65-5.36-1,11.3,6.1,13.7,6.43,14.75s-4.75,5.58-6.81,5.66.71-7.29.71-7.29c-7.85,10.78,1.59,14.33-2.26,14.34s-6.75-10-6.75-10c2.16,23.62,23,12.49,23,12.49-3.06,9.74,7.67,1.34,7.67,1.34,11.12,5.92,32.52-4.22,32.52-4.22C238.13,51,233.14,39.45,233.14,39.45Z" />
</svg>
